<svg xmlns="http://www.w3.org/2000/svg" width="0" height="0" style="position:absolute" aria-hidden="true" focusable="false"><defs>
  <!-- UI icons -->
  <symbol id="ic-search" viewBox="0 0 24 24" fill="none" stroke="currentColor" stroke-width="1.8" stroke-linecap="round" stroke-linejoin="round"><circle cx="11" cy="11" r="7"></circle><path d="m20 20-3.2-3.2"></path></symbol>
  <symbol id="ic-user" viewBox="0 0 24 24" fill="none" stroke="currentColor" stroke-width="1.8" stroke-linecap="round" stroke-linejoin="round"><circle cx="12" cy="8" r="4"></circle><path d="M5 20c1.2-3.6 4-5 7-5s5.8 1.4 7 5"></path></symbol>
  <symbol id="ic-heart" viewBox="0 0 24 24" fill="none" stroke="currentColor" stroke-width="1.8" stroke-linecap="round" stroke-linejoin="round"><path d="M19 13.6c1.4-1.4 2.5-2.9 2.5-4.9A4.6 4.6 0 0 0 16.9 4c-1.5 0-2.7.6-3.9 1.9-.5.5-1.5.5-2 0C9.8 4.6 8.6 4 7.1 4A4.6 4.6 0 0 0 2.5 8.7c0 2 1.1 3.5 2.5 4.9l6.3 6.1c.4.4 1 .4 1.4 0Z"></path></symbol>
  <symbol id="ic-heart-fill" viewBox="0 0 24 24" fill="currentColor"><path d="M19 13.6c1.4-1.4 2.5-2.9 2.5-4.9A4.6 4.6 0 0 0 16.9 4c-1.5 0-2.7.6-3.9 1.9-.5.5-1.5.5-2 0C9.8 4.6 8.6 4 7.1 4A4.6 4.6 0 0 0 2.5 8.7c0 2 1.1 3.5 2.5 4.9l6.3 6.1c.4.4 1 .4 1.4 0Z"></path></symbol>
  <symbol id="ic-bag" viewBox="0 0 24 24" fill="none" stroke="currentColor" stroke-width="1.8" stroke-linecap="round" stroke-linejoin="round"><path d="M6.2 8h11.6a1 1 0 0 1 1 1.1l-1 9.8a2 2 0 0 1-2 1.8H8.2a2 2 0 0 1-2-1.8l-1-9.8a1 1 0 0 1 1-1.1Z"></path><path d="M8.8 8V6.6a3.2 3.2 0 0 1 6.4 0V8"></path></symbol>
  <symbol id="ic-star" viewBox="0 0 24 24"><path d="M12 3.2l2.5 5.3 5.8.7-4.3 4 1.1 5.8L12 21.1 6.9 19l1.1-5.8-4.3-4 5.8-.7L12 3.2Z" fill="currentColor"></path></symbol>
  <symbol id="ic-chevron" viewBox="0 0 24 24" fill="none" stroke="currentColor" stroke-width="2" stroke-linecap="round" stroke-linejoin="round"><path d="m9 6 6 6-6 6"></path></symbol>
  <symbol id="ic-arrow" viewBox="0 0 24 24" fill="none" stroke="currentColor" stroke-width="1.9" stroke-linecap="round" stroke-linejoin="round"><path d="M4 12h15"></path><path d="m13 6 6 6-6 6"></path></symbol>
  <symbol id="ic-menu" viewBox="0 0 24 24" fill="none" stroke="currentColor" stroke-width="1.9" stroke-linecap="round"><path d="M4 7h16M4 12h16M4 17h16"></path></symbol>
  <symbol id="ic-close" viewBox="0 0 24 24" fill="none" stroke="currentColor" stroke-width="1.9" stroke-linecap="round"><path d="M6 6l12 12M18 6 6 18"></path></symbol>
  <symbol id="ic-plus" viewBox="0 0 24 24" fill="none" stroke="currentColor" stroke-width="2" stroke-linecap="round"><path d="M12 6v12M6 12h12"></path></symbol>
  <symbol id="ic-minus" viewBox="0 0 24 24" fill="none" stroke="currentColor" stroke-width="2" stroke-linecap="round"><path d="M6 12h12"></path></symbol>
  <symbol id="ic-check" viewBox="0 0 24 24" fill="none" stroke="currentColor" stroke-width="2" stroke-linecap="round" stroke-linejoin="round"><path d="m5 12.5 4.5 4.5L19 7"></path></symbol>
  <symbol id="ic-truck" viewBox="0 0 24 24" fill="none" stroke="currentColor" stroke-width="1.8" stroke-linecap="round" stroke-linejoin="round"><path d="M3 7h11v8H3z"></path><path d="M14 10h3.5L21 13v2h-7"></path><circle cx="7" cy="17.5" r="1.6"></circle><circle cx="17" cy="17.5" r="1.6"></circle></symbol>
  <symbol id="ic-return" viewBox="0 0 24 24" fill="none" stroke="currentColor" stroke-width="1.8" stroke-linecap="round" stroke-linejoin="round"><path d="M4 9a8 8 0 1 1-1.2 5"></path><path d="M4 4v5h5"></path></symbol>
  <symbol id="ic-leaf" viewBox="0 0 24 24" fill="none" stroke="currentColor" stroke-width="1.8" stroke-linecap="round" stroke-linejoin="round"><path d="M20 4S8 4 5.5 11.5C4 16 6.5 19 6.5 19S6 9 20 4Z"></path><path d="M6.5 19c2-6 6-9 10.5-11"></path></symbol>
  <symbol id="ic-shield" viewBox="0 0 24 24" fill="none" stroke="currentColor" stroke-width="1.8" stroke-linecap="round" stroke-linejoin="round"><path d="M12 3.5l7 2.5v5c0 4.5-3 7.8-7 9.5-4-1.7-7-5-7-9.5V6l7-2.5Z"></path><path d="m8.8 12 2.2 2.2 4-4.2"></path></symbol>
  <symbol id="ic-sparkle" viewBox="0 0 24 24" fill="none" stroke="currentColor" stroke-width="1.7" stroke-linecap="round" stroke-linejoin="round"><path d="M12 4l1.6 4.4L18 10l-4.4 1.6L12 16l-1.6-4.4L6 10l4.4-1.6L12 4Z"></path></symbol>

  <!-- category icons -->
  <symbol id="ic-organize" viewBox="0 0 24 24" fill="none" stroke="currentColor" stroke-width="1.7" stroke-linecap="round" stroke-linejoin="round"><rect x="3.5" y="4.5" width="17" height="15" rx="2"></rect><path d="M3.5 12h17M12 4.5v15"></path><path d="M7.5 8.2h1M15.5 8.2h1M7.5 15.6h1M15.5 15.6h1"></path></symbol>
  <symbol id="ic-cozy" viewBox="0 0 24 24" fill="none" stroke="currentColor" stroke-width="1.7" stroke-linecap="round" stroke-linejoin="round"><path d="M5 11h11v4a4 4 0 0 1-4 4H9a4 4 0 0 1-4-4v-4Z"></path><path d="M16 12h2.2a2.3 2.3 0 0 1 0 4.6H16"></path><path d="M8 4.5c-.6.8-.6 1.7 0 2.5M11.5 4c-.6.8-.6 1.7 0 2.5"></path></symbol>
  <symbol id="ic-togo" viewBox="0 0 24 24" fill="none" stroke="currentColor" stroke-width="1.7" stroke-linecap="round" stroke-linejoin="round"><rect x="4" y="7.5" width="16" height="12" rx="2"></rect><path d="M9 7.5V6a2 2 0 0 1 2-2h2a2 2 0 0 1 2 2v1.5"></path><path d="M4 12.5h16"></path></symbol>
  <symbol id="ic-fix" viewBox="0 0 24 24" fill="none" stroke="currentColor" stroke-width="1.7" stroke-linecap="round" stroke-linejoin="round"><path d="M14.5 6.5a3.5 3.5 0 0 0-4.6 4.2L4 16.6 7.4 20l5.9-5.9a3.5 3.5 0 0 0 4.2-4.6l-2.3 2.3-2.1-.5-.5-2.1 1.9-2.7Z"></path></symbol>

  <!-- product illustrations -->
  <symbol id="pr-tray" viewBox="0 0 64 64" fill="none" stroke="currentColor" stroke-width="2.2" stroke-linecap="round" stroke-linejoin="round"><rect x="9" y="18" width="46" height="30" rx="3"></rect><path d="M9 30h46M24 18v30M40 18v30"></path><path d="M9 18l5-6h36l5 6"></path></symbol>
  <symbol id="pr-heater" viewBox="0 0 64 64" fill="none" stroke="currentColor" stroke-width="2.2" stroke-linecap="round" stroke-linejoin="round"><rect x="16" y="22" width="32" height="28" rx="4"></rect><path d="M24 30v12M32 30v12M40 30v12"></path><path d="M22 16c-2 2.5-2 5 0 7.5M32 14c-2 2.5-2 5 0 7.5M42 16c-2 2.5-2 5 0 7.5"></path></symbol>
  <symbol id="pr-cord" viewBox="0 0 64 64" fill="none" stroke="currentColor" stroke-width="2.2" stroke-linecap="round" stroke-linejoin="round"><rect x="10" y="26" width="44" height="12" rx="6"></rect><path d="M20 26V15M32 26V13M44 26V17"></path><path d="M20 38v9M32 38v11M44 38v8"></path><circle cx="20" cy="32" r="1.5" fill="currentColor" stroke="none"></circle><circle cx="32" cy="32" r="1.5" fill="currentColor" stroke="none"></circle><circle cx="44" cy="32" r="1.5" fill="currentColor" stroke="none"></circle></symbol>
  <symbol id="pr-sink" viewBox="0 0 64 64" fill="none" stroke="currentColor" stroke-width="2.2" stroke-linecap="round" stroke-linejoin="round"><path d="M16 26h32l-2.5 22a3 3 0 0 1-3 2.6H21.5a3 3 0 0 1-3-2.6L16 26Z"></path><path d="M16 26l3-7h26l3 7"></path><circle cx="26" cy="36" r="1.5" fill="currentColor" stroke="none"></circle><circle cx="32" cy="36" r="1.5" fill="currentColor" stroke="none"></circle><circle cx="38" cy="36" r="1.5" fill="currentColor" stroke="none"></circle><circle cx="26" cy="43" r="1.5" fill="currentColor" stroke="none"></circle><circle cx="32" cy="43" r="1.5" fill="currentColor" stroke="none"></circle><circle cx="38" cy="43" r="1.5" fill="currentColor" stroke="none"></circle></symbol>
  <symbol id="pr-riser" viewBox="0 0 64 64" fill="none" stroke="currentColor" stroke-width="2.2" stroke-linecap="round" stroke-linejoin="round"><path d="M10 34h44"></path><path d="M16 34v12M48 34v12"></path><rect x="22" y="20" width="20" height="14" rx="2"></rect><rect x="20" y="46" width="24" height="6" rx="2"></rect></symbol>
  <symbol id="pr-cubes" viewBox="0 0 64 64" fill="none" stroke="currentColor" stroke-width="2.2" stroke-linecap="round" stroke-linejoin="round"><rect x="12" y="14" width="40" height="16" rx="3"></rect><rect x="12" y="34" width="40" height="16" rx="3"></rect><path d="M17 22h22M17 42h22" stroke-dasharray="2 3"></path><circle cx="44" cy="22" r="1.7" fill="currentColor" stroke="none"></circle><circle cx="44" cy="42" r="1.7" fill="currentColor" stroke="none"></circle></symbol>
  <symbol id="pr-rug" viewBox="0 0 64 64" fill="none" stroke="currentColor" stroke-width="2.2" stroke-linecap="round" stroke-linejoin="round"><rect x="12" y="20" width="40" height="24" rx="2"></rect><path d="M12 28h40M12 36h40"></path><path d="M16 20v-4M24 20v-4M32 20v-4M40 20v-4M48 20v-4" stroke-width="1.6"></path><path d="M16 44v4M24 44v4M32 44v4M40 44v4M48 44v4" stroke-width="1.6"></path></symbol>
  <symbol id="pr-mug" viewBox="0 0 64 64" fill="none" stroke="currentColor" stroke-width="2.2" stroke-linecap="round" stroke-linejoin="round"><path d="M16 26h26v18a8 8 0 0 1-8 8H24a8 8 0 0 1-8-8V26Z"></path><path d="M42 30h6a5 5 0 0 1 0 10h-6"></path><path d="M24 16c-2 2.5-2 5 0 7.5M34 16c-2 2.5-2 5 0 7.5"></path></symbol>
  <symbol id="pr-clip" viewBox="0 0 64 64" fill="none" stroke="currentColor" stroke-width="2.2" stroke-linecap="round" stroke-linejoin="round"><rect x="14" y="12" width="36" height="44" rx="4"></rect><rect x="24" y="8" width="16" height="8" rx="2"></rect><path d="M22 28l4 4 8-8M22 42l4 4 8-8"></path><path d="M40 26h6M40 40h6"></path></symbol>
</defs></svg>
